<?xml version="1.0" encoding="UTF-8" standalone="no"?><!DOCTYPE svg PUBLIC "-//W3C//DTD SVG 1.1//EN" "http://www.w3.org/Graphics/SVG/1.1/DTD/svg11.dtd"><svg width="100%" height="100%" viewBox="0 0 110 84" version="1.1" xmlns="http://www.w3.org/2000/svg" xmlns:xlink="http://www.w3.org/1999/xlink" xml:space="preserve" xmlns:serif="http://www.serif.com/" style="fill-rule:evenodd;clip-rule:evenodd;stroke-linejoin:round;stroke-miterlimit:1.41421;"><path d="M94.057,41.781c-0.001,8.103 -3.27,14.887 -9.456,19.619c-6.748,5.163 -17.007,7.891 -29.67,7.891c-12.711,0 -23.005,-2.729 -29.769,-7.892c-6.193,-4.729 -9.467,-11.512 -9.467,-19.618c0,-8.105 3.274,-14.889 9.467,-19.618c6.764,-5.163 17.058,-7.892 29.769,-7.892c12.663,0 22.923,2.728 29.671,7.891c6.185,4.732 9.454,11.516 9.454,19.619m1.517,-29.792c-9.62,-7.729 -23.673,-11.813 -40.642,-11.813c-16.968,0 -31.021,4.084 -40.642,11.813c-9.185,7.378 -14.038,17.68 -14.038,29.792c0,12.112 4.854,22.414 14.038,29.792c9.621,7.729 23.674,11.813 40.642,11.813c16.968,0 31.023,-4.084 40.642,-11.813c9.185,-7.378 14.04,-17.68 14.04,-29.792c0,-12.112 -4.855,-22.414 -14.04,-29.792" style="fill:#fff;fill-rule:nonzero;"/></svg>