<svg viewBox="0 0 112 84" xmlns="http://www.w3.org/2000/svg" fill-rule="evenodd" clip-rule="evenodd" stroke-linejoin="round" stroke-miterlimit="1.414"><path d="M65.433 14.271c16.87 0 30.422 3.026 40.344 5.664l1.418.376 3.895-13.496-1.425-.424C104.501 4.854 88.784.176 65.433.176c-21.604 0-38.225 3.954-49.4 11.752C5.833 19.046.442 29.369.442 41.781c0 12.413 5.391 22.736 15.591 29.854 11.175 7.798 27.796 11.752 49.4 11.752 23.35 0 39.067-4.678 44.232-6.216l1.425-.424-3.895-13.496-1.418.377c-9.922 2.637-23.473 5.664-40.344 5.664-31.702 0-48.459-9.513-48.459-27.511 0-17.997 16.757-27.51 48.459-27.51" fill="#fff" fill-rule="nonzero"/></svg>