<svg viewBox="0 0 114 82" xmlns="http://www.w3.org/2000/svg" fill-rule="evenodd" clip-rule="evenodd" stroke-linejoin="round" stroke-miterlimit="1.414"><path d="M.982 59.122c0 7.877 5.92 13.784 17.595 17.554 9.328 3.012 22.386 4.604 37.763 4.604 22.856 0 46.642-3.58 56.434-7.041l1.22-.431-4.993-12.7-1.12.366c-8.102 2.648-31.798 6.479-53.449 6.479-22.853 0-35.96-3.883-35.96-10.654 0-10.01 33.552-10.01 76.031-10.01h1.249V34.176h-1.249c-22.481 0-42.154-.119-55.23-1.587-12.438-1.396-18.484-4.011-18.484-7.995 0-6.869 13.594-10.653 38.277-10.653 20.463 0 42.709 2.932 48.539 4.155l1.127.237 3.846-13.024-1.331-.273C102.608 3.258 82.054.614 60.838.614 39.349.614 3.299 3.451 3.299 22.45c0 11.292 13.263 15.892 29.066 18.123C15.376 42.634.982 47.2.982 59.122" fill="#fff" fill-rule="nonzero"/></svg>