<?xml version="1.0" encoding="UTF-8" standalone="no"?><!DOCTYPE svg PUBLIC "-//W3C//DTD SVG 1.1//EN" "http://www.w3.org/Graphics/SVG/1.1/DTD/svg11.dtd"><svg width="100%" height="100%" viewBox="0 0 114 82" version="1.1" xmlns="http://www.w3.org/2000/svg" xmlns:xlink="http://www.w3.org/1999/xlink" xml:space="preserve" xmlns:serif="http://www.serif.com/" style="fill-rule:evenodd;clip-rule:evenodd;stroke-linejoin:round;stroke-miterlimit:1.41421;"><path d="M0.982,59.122c0,7.877 5.92,13.784 17.595,17.554c9.328,3.012 22.386,4.604 37.763,4.604c22.856,0 46.642,-3.58 56.434,-7.041l1.22,-0.431l-4.993,-12.7l-1.12,0.366c-8.102,2.648 -31.798,6.479 -53.449,6.479c-22.853,0 -35.96,-3.883 -35.96,-10.654c0,-10.01 33.552,-10.01 76.031,-10.01l1.249,0l0,-13.113l-1.249,0c-22.481,0 -42.154,-0.119 -55.23,-1.587c-12.438,-1.396 -18.484,-4.011 -18.484,-7.995c0,-6.869 13.594,-10.653 38.277,-10.653c20.463,0 42.709,2.932 48.539,4.155l1.127,0.237l3.846,-13.024l-1.331,-0.273c-8.639,-1.778 -29.193,-4.422 -50.409,-4.422c-21.489,0 -57.539,2.837 -57.539,21.836c0,11.292 13.263,15.892 29.066,18.123c-16.989,2.061 -31.383,6.627 -31.383,18.549" style="fill:#fff;fill-rule:nonzero;"/></svg>