<svg viewBox="0 0 110 84" xmlns="http://www.w3.org/2000/svg" fill-rule="evenodd" clip-rule="evenodd" stroke-linejoin="round" stroke-miterlimit="1.414"><path d="M94.057 41.781c-.001 8.103-3.27 14.887-9.456 19.619-6.748 5.163-17.007 7.891-29.67 7.891-12.711 0-23.005-2.729-29.769-7.892-6.193-4.729-9.467-11.512-9.467-19.618 0-8.105 3.274-14.889 9.467-19.618C31.926 17 42.22 14.271 54.931 14.271c12.663 0 22.923 2.728 29.671 7.891 6.185 4.732 9.454 11.516 9.454 19.619m1.517-29.792C85.953 4.26 71.9.176 54.931.176 37.963.176 23.91 4.26 14.289 11.989 5.104 19.367.251 29.669.251 41.781c0 12.112 4.854 22.414 14.038 29.792 9.621 7.729 23.674 11.813 40.642 11.813 16.968 0 31.023-4.084 40.642-11.813 9.185-7.378 14.04-17.68 14.04-29.792 0-12.112-4.855-22.414-14.04-29.792" fill-rule="nonzero"/></svg>