<?xml version="1.0" encoding="UTF-8" standalone="no"?><!DOCTYPE svg PUBLIC "-//W3C//DTD SVG 1.1//EN" "http://www.w3.org/Graphics/SVG/1.1/DTD/svg11.dtd"><svg width="100%" height="100%" viewBox="0 0 112 84" version="1.1" xmlns="http://www.w3.org/2000/svg" xmlns:xlink="http://www.w3.org/1999/xlink" xml:space="preserve" xmlns:serif="http://www.serif.com/" style="fill-rule:evenodd;clip-rule:evenodd;stroke-linejoin:round;stroke-miterlimit:1.41421;"><path d="M65.433,14.271c16.87,0 30.422,3.026 40.344,5.664l1.418,0.376l3.895,-13.496l-1.425,-0.424c-5.164,-1.537 -20.881,-6.215 -44.232,-6.215c-21.604,0 -38.225,3.954 -49.4,11.752c-10.2,7.118 -15.591,17.441 -15.591,29.853c0,12.413 5.391,22.736 15.591,29.854c11.175,7.798 27.796,11.752 49.4,11.752c23.35,0 39.067,-4.678 44.232,-6.216l1.425,-0.424l-3.895,-13.496l-1.418,0.377c-9.922,2.637 -23.473,5.664 -40.344,5.664c-31.702,0 -48.459,-9.513 -48.459,-27.511c0,-17.997 16.757,-27.51 48.459,-27.51" style="fill-rule:nonzero;"/></svg>